<svg xmlns="http://www.w3.org/2000/svg" version="1.1" xmlns:xlink="http://www.w3.org/1999/xlink" width="512" height="512" x="0" y="0" viewBox="0 0 128 128" style="enable-background:new 0 0 512 512" xml:space="preserve" class=""><g><path d="M49.914 117.728c0 1.104-.877 2.009-1.981 2.009s-2.009-.905-2.009-2.009v-25.16c0-1.697.735-3.226 1.924-4.329a6.502 6.502 0 0 1 4.444-1.726h23.404c1.726 0 3.311.65 4.442 1.726 1.188 1.104 1.926 2.632 1.926 4.329v25.16c0 1.104-.878 2.009-1.982 2.009s-2.009-.905-2.009-2.009v-25.16c0-.537-.227-1.047-.623-1.414a2.619 2.619 0 0 0-1.754-.651h-9.708v27.226c0 1.104-.876 2.009-1.98 2.009a2.017 2.017 0 0 1-2.009-2.009V90.502h-9.707c-.679 0-1.274.256-1.726.651-.396.367-.651.877-.651 1.414v25.161zM44.283 59.684h13.074a1.97 1.97 0 0 1 1.981 1.981v12.17a1.967 1.967 0 0 1-1.981 1.979H44.283a1.967 1.967 0 0 1-1.981-1.979v-12.17a1.968 1.968 0 0 1 1.981-1.981zm0-24.197h13.074a1.97 1.97 0 0 1 1.981 1.981v12.169a1.968 1.968 0 0 1-1.981 1.981H44.283a1.97 1.97 0 0 1-1.981-1.981V37.469a1.969 1.969 0 0 1 1.981-1.982zm11.065 3.992h-9.056v8.149h9.056zm21.847 8.149c1.104 0 1.98.906 1.98 2.01s-.877 1.981-1.98 1.981h-6.537c-1.104 0-2.01-.878-2.01-1.981V37.469c0-1.104.905-1.981 2.01-1.981a1.97 1.97 0 0 1 1.981 1.981v10.159zm-6.537 12.056h13.046c1.104 0 2.009.878 2.009 1.981v12.17c0 1.104-.905 1.979-2.009 1.979H70.658c-1.104 0-2.01-.876-2.01-1.979v-12.17c0-1.103.906-1.981 2.01-1.981zm11.066 3.991H72.64v8.15h9.084zm-26.376 0h-9.056v8.15h9.056zM97.627 61.298c-.565.934-1.781 1.273-2.716.707a2.275 2.275 0 0 1-.736-.735l-17.15-29.065c-.878-1.5-1.613-3.424-2.065-5.122a21.601 21.601 0 0 1-.68-5.434 21.564 21.564 0 0 1 6.339-15.311A21.584 21.584 0 0 1 95.93 0c5.971 0 11.376 2.434 15.31 6.339 3.905 3.935 6.34 9.339 6.34 15.311 0 1.868-.255 3.679-.707 5.434-.454 1.812-1.162 3.509-2.038 5.094zm-1.697-4.925 15.451-26.178a17.584 17.584 0 0 0 2.207-8.546c0-4.868-1.979-9.282-5.178-12.48A17.609 17.609 0 0 0 95.93 3.99a17.618 17.618 0 0 0-12.508 5.179c-3.171 3.198-5.151 7.612-5.151 12.48 0 1.557.197 3.027.538 4.443.367 1.414.933 2.773 1.612 4.046z" fill="#fff" opacity="1" data-original="#fff" class=""></path><path d="M95.93 10.103c3.17 0 6.056 1.303 8.149 3.396a11.409 11.409 0 0 1 3.397 8.15c0 3.197-1.303 6.085-3.397 8.179-2.094 2.066-4.979 3.367-8.149 3.367a11.622 11.622 0 0 1-8.179-3.367c-2.094-2.094-3.367-4.981-3.367-8.179s1.273-6.084 3.367-8.15a11.527 11.527 0 0 1 8.179-3.396zm5.32 6.198a7.55 7.55 0 0 0-10.669 0c-1.359 1.387-2.207 3.254-2.207 5.349 0 2.094.848 3.99 2.207 5.349a7.55 7.55 0 0 0 10.669 0 7.46 7.46 0 0 0 2.235-5.349c0-2.095-.849-3.962-2.235-5.349zM105.154 97.21c-1.104 0-1.979-.905-1.979-2.009s.876-1.982 1.979-1.982h7.245c2.491 0 4.699 1.444 5.661 3.736l9.367 22.81c.396.962.537 1.925.424 2.887-.198 1.953-1.501 3.763-3.227 4.669a6.162 6.162 0 0 1-2.857.68H6.248a6.163 6.163 0 0 1-2.858-.68c-1.755-.906-3.028-2.716-3.254-4.669a6.415 6.415 0 0 1 .424-2.887l9.396-22.81c.962-2.292 3.169-3.736 5.66-3.736h7.188c1.104 0 1.981.879 1.981 1.982s-.877 2.009-1.981 2.009h-7.188c-.877 0-1.642.424-1.981 1.273l-9.367 22.809a1.832 1.832 0 0 0-.17.935c.085.651.538 1.245 1.104 1.557.311.142.65.227 1.047.227h115.52c.396 0 .735-.085 1.019-.227.595-.312 1.047-.905 1.104-1.557.028-.312 0-.622-.142-.935l-9.367-22.809c-.34-.85-1.104-1.273-1.981-1.273z" fill="#fff" opacity="1" data-original="#fff" class=""></path><path d="M93.921 69.872c0-1.104.905-2.01 2.009-2.01s1.981.906 1.981 2.01v47.855c0 1.104-.878 2.009-1.981 2.009H32.085c-1.104 0-1.981-.905-1.981-2.009V30.253c0-1.698.736-3.227 1.925-4.33a6.465 6.465 0 0 1 4.443-1.755h31.497c1.104 0 1.981.905 1.981 2.01 0 1.104-.878 2.009-1.981 2.009H36.472c-.708 0-1.302.227-1.754.651a1.928 1.928 0 0 0-.623 1.415v85.492h59.827V69.872z" fill="#fff" opacity="1" data-original="#fff" class=""></path></g></svg>