<svg xmlns="http://www.w3.org/2000/svg" version="1.1" xmlns:xlink="http://www.w3.org/1999/xlink" width="512" height="512" x="0" y="0" viewBox="0 0 512 512" style="enable-background:new 0 0 512 512" xml:space="preserve"><g><path d="M437.02 74.98C388.667 26.628 324.38 0 256 0S123.333 26.628 74.98 74.98 0 187.62 0 256s26.628 132.667 74.98 181.02S187.62 512 256 512s132.667-26.628 181.02-74.98S512 324.38 512 256s-26.628-132.667-74.98-181.02zm-11.314 350.726C380.376 471.036 320.106 496 256 496s-124.376-24.964-169.706-70.294C40.964 380.376 16 320.106 16 256S40.964 131.624 86.294 86.294C131.624 40.964 191.894 16 256 16s124.376 24.964 169.706 70.294C471.036 131.624 496 191.894 496 256s-24.964 124.376-70.294 169.706z" fill="#fff" opacity="1" data-original="#fff"></path><path d="M48 256c0-114.691 93.309-208 208-208 41.368 0 81.326 12.111 115.555 35.024a8 8 0 0 0 11.098-2.198 8 8 0 0 0-2.198-11.098C343.584 45.046 300.548 32 256 32c-59.833 0-116.084 23.3-158.392 65.608C55.3 139.916 32 196.167 32 256c0 55.2 20.254 108.232 57.032 149.328a7.98 7.98 0 0 0 5.964 2.665 7.966 7.966 0 0 0 5.332-2.039 8 8 0 0 0 .626-11.296C66.807 356.5 48 307.257 48 256zM442.273 131.547a8 8 0 0 0-13.296 8.9C451.889 174.675 464 214.633 464 256c0 114.691-93.309 208-208 208-47.583 0-94.096-16.479-130.969-46.401a8 8 0 1 0-10.082 12.424C154.664 462.251 204.757 480 256 480c59.833 0 116.084-23.3 158.392-65.608C456.7 372.084 480 315.833 480 256c0-44.547-13.046-87.583-37.727-124.453zM394.658 100.955a209.82 209.82 0 0 1 15.414 15.308 7.98 7.98 0 0 0 5.927 2.624 8.002 8.002 0 0 0 5.922-13.377 226.283 226.283 0 0 0-16.593-16.478 8 8 0 0 0-10.67 11.923z" fill="#fff" opacity="1" data-original="#fff"></path><path d="M256 104a8 8 0 0 0 8-8V72a8 8 0 0 0-16 0v24a8 8 0 0 0 8 8zM248 416v24a8 8 0 0 0 16 0v-24a8 8 0 0 0-16 0zM104 256a8 8 0 0 0-8-8H72a8 8 0 0 0 0 16h24a8 8 0 0 0 8-8zM408 256a8 8 0 0 0 8 8h24a8 8 0 0 0 0-16h-24a8 8 0 0 0-8 8zM182.928 113.436l-12-20.785a8 8 0 0 0-13.856 8l12 20.785a7.998 7.998 0 0 0 10.929 2.928 8 8 0 0 0 2.927-10.928zM342.928 390.564a8 8 0 0 0-13.856 8l12 20.785a7.998 7.998 0 0 0 10.929 2.928 8 8 0 0 0 2.928-10.928l-12.001-20.785zM96.659 356.001a7.97 7.97 0 0 0 3.993-1.073l20.785-12a8 8 0 0 0-8-13.856l-20.785 12a8 8 0 0 0 4.007 14.929zM394.571 184.001a7.97 7.97 0 0 0 3.993-1.073l20.785-12a8 8 0 0 0-8-13.856l-20.785 12a8 8 0 0 0 4.007 14.929zM352 89.723a7.998 7.998 0 0 0-10.928 2.928l-12 20.785a8 8 0 0 0 13.857 8l12-20.785A8.001 8.001 0 0 0 352 89.723zM180 387.636a8 8 0 0 0-10.928 2.928l-12 20.785a8 8 0 0 0 13.857 8l12-20.785A8.001 8.001 0 0 0 180 387.636zM390.564 342.928l20.785 12A7.998 7.998 0 0 0 422.278 352a8 8 0 0 0-2.928-10.928l-20.785-12A8 8 0 0 0 387.637 332a7.999 7.999 0 0 0 2.927 10.928zM121.436 169.072l-20.785-12a8 8 0 0 0-8 13.856l20.785 12A7.998 7.998 0 0 0 124.365 180a8.001 8.001 0 0 0-2.929-10.928zM311.692 360.451a8 8 0 0 0 6.921-12.001l-44.38-76.869C277.824 267.384 280 261.943 280 256c0-10.429-6.689-19.322-16-22.624V128a8 8 0 0 0-16 0v105.376c-9.311 3.302-16 12.195-16 22.624 0 13.234 10.766 24 24 24 1.497 0 2.961-.145 4.383-.408l44.374 76.858a7.998 7.998 0 0 0 6.935 4.001zM248 256c0-4.411 3.589-8 8-8s8 3.589 8 8-3.589 8-8 8-8-3.589-8-8z" fill="#fff" opacity="1" data-original="#fff"></path></g></svg>