<svg width="13" height="8" viewBox="0 0 13 8" fill="none" xmlns="http://www.w3.org/2000/svg">
<path d="M12.7922 1.04847L12.3664 0.652657C12.2324 0.529046 12.0541 0.460948 11.8635 0.460948C11.673 0.460948 11.4945 0.529046 11.3605 0.652657L6.50291 5.13679L1.6397 0.647681C1.5059 0.524071 1.32738 0.45607 1.13693 0.45607C0.946471 0.45607 0.767852 0.524071 0.63394 0.647681L0.208002 1.04105C-0.0693339 1.29686 -0.0693339 1.71354 0.208002 1.96935L5.99823 7.33339C6.13203 7.45691 6.31034 7.54393 6.50248 7.54393H6.5047C6.69527 7.54393 6.87357 7.45681 7.00737 7.33339L12.7922 1.98389C12.9262 1.86037 12.9998 1.69081 13 1.51501C13 1.3391 12.9262 1.17188 12.7922 1.04847Z" fill="#7C172B"/>
</svg>
