<svg width="22" height="20" viewBox="0 0 22 20" fill="none" xmlns="http://www.w3.org/2000/svg">
<path d="M1.26302 8.89608L1.25002 8.91667H3.41669V18.6667C3.41669 18.954 3.53083 19.2295 3.73399 19.4327C3.93716 19.6359 4.21271 19.75 4.50002 19.75H17.5C17.7873 19.75 18.0629 19.6359 18.2661 19.4327C18.4692 19.2295 18.5834 18.954 18.5834 18.6667V8.91667H20.75C20.9825 8.91672 21.2089 8.84196 21.3957 8.70343C21.5824 8.5649 21.7197 8.36996 21.7871 8.14743C21.8545 7.92489 21.8485 7.68657 21.77 7.46769C21.6916 7.24882 21.5447 7.061 21.3513 6.932L11.6013 0.432C11.4233 0.313224 11.214 0.249838 11 0.249838C10.786 0.249838 10.5768 0.313224 10.3988 0.432L0.648774 6.932C0.530396 7.01095 0.428728 7.11244 0.349579 7.23068C0.27043 7.34892 0.215349 7.4816 0.187483 7.62113C0.159616 7.76066 0.15951 7.90432 0.187171 8.04389C0.214831 8.18347 0.269716 8.31622 0.348691 8.43458C0.449807 8.58238 0.586663 8.70219 0.746527 8.78288C0.90639 8.86357 1.08407 8.90251 1.26302 8.89608ZM8.83336 12.1667C8.83336 11.8793 8.94749 11.6038 9.15066 11.4006C9.35382 11.1975 9.62937 11.0833 9.91669 11.0833H12.0834C12.3707 11.0833 12.6462 11.1975 12.8494 11.4006C13.0526 11.6038 13.1667 11.8793 13.1667 12.1667V17.5833H8.83336V12.1667Z" fill="#BF3272"/>
</svg>
